<svg xmlns="http://www.w3.org/2000/svg" viewBox="0 0 506.54 506"><defs><style>.cls-1{fill:#fff;}.cls-2{fill:#004fad;}.cls-3{fill:#ffe000;}.cls-4{fill:#ff3ead;}.cls-5{fill:#61b0ff;}.cls-6{fill:#00172d;}</style></defs><g id="Layer_2" data-name="Layer 2"><g id="Layer_1-2" data-name="Layer 1"><g id="MIX_FAVICON" data-name="MIX FAVICON"><g id="LIGHT_FAVICON" data-name="LIGHT FAVICON"><rect class="cls-1" x="0.54" width="506" height="506" rx="253"/><g id="RIGHT"><path class="cls-2" d="M149.15,174.35a24.35,24.35,0,0,1,8.66-.93c.67.05,1.37.1,2.08.17h.1a6.5,6.5,0,0,0,7.06-5.81l1.63-16.32a6.34,6.34,0,0,0-5.25-6.9c-1.16-.19-2.36-.37-3.6-.52a103.51,103.51,0,0,0-12.86-.66,52.38,52.38,0,0,0-23,4.88,32.81,32.81,0,0,0-15.13,14.24q-5,9.36-2.62,22.82a56.48,56.48,0,0,0,3.4,11.14q2.32,5.53,4.34,11.26a35.75,35.75,0,0,1,2,12q0,9.06-10.42,13.64-8.5,3.73-22.1,4.43A6.73,6.73,0,0,0,77,244.52v16.94a6.73,6.73,0,0,0,6.48,6.69q13.58.59,22.06,3.73Q116,275.77,116,284.1a35.22,35.22,0,0,1-2,11.73q-2,5.78-4.4,11.38a49.89,49.89,0,0,0-3.34,11.32q-2.39,13.94,2.62,23.77A34.13,34.13,0,0,0,124,357.37a49.36,49.36,0,0,0,23,5.24,103.51,103.51,0,0,0,12.86-.66c1.24-.15,2.44-.33,3.6-.52a6.34,6.34,0,0,0,5.25-6.9L167,338.06a6.39,6.39,0,0,0-7.08-5.72h-.07a51.23,51.23,0,0,1-5.77.36,15.48,15.48,0,0,1-12.22-5.78q-4.93-5.78-2.68-16.86a63.41,63.41,0,0,1,5.3-15A35.9,35.9,0,0,0,148.28,279q0-10.73-9.47-17-8.77-5.79-24-6.43a2.57,2.57,0,0,1,0-5.14q15.22-.68,24-6.84,9.47-6.68,9.47-18.71A37.31,37.31,0,0,0,144.7,209a88.8,88.8,0,0,1-5.48-15.25Q135.41,178.55,149.15,174.35Z"/><rect class="cls-2" x="45.31" y="217.13" width="14.64" height="73.2" rx="5.86"/></g><g id="BALLS"><circle class="cls-3" cx="253.62" cy="253" r="23.68"/><circle class="cls-4" cx="192.55" cy="253" r="23.68"/><circle class="cls-5" cx="314.7" cy="253" r="23.68"/></g><g id="LEFT"><path class="cls-2" d="M423.61,237.83q-13.59-.69-22.09-4.43-10.42-4.59-10.43-13.64a35.75,35.75,0,0,1,2-12q2-5.73,4.34-11.26a55.82,55.82,0,0,0,3.4-11.14q2.38-13.47-2.62-22.82a32.81,32.81,0,0,0-15.13-14.24,52.38,52.38,0,0,0-23-4.88,103.51,103.51,0,0,0-12.86.66c-1.24.15-2.44.33-3.6.52a6.35,6.35,0,0,0-5.25,6.9L340,167.79a6.5,6.5,0,0,0,7.06,5.81h.1c.71-.07,1.41-.12,2.09-.17a24.32,24.32,0,0,1,8.65.93q13.74,4.2,9.93,19.44A88.8,88.8,0,0,1,362.38,209a37.31,37.31,0,0,0-3.58,15.84q0,12,9.47,18.71,8.78,6.16,24,6.84a2.57,2.57,0,0,1,0,5.14q-15.22.65-24,6.43-9.47,6.25-9.47,17a35.9,35.9,0,0,0,3.76,16.09,63.41,63.41,0,0,1,5.3,15q2.26,11.08-2.68,16.86A15.47,15.47,0,0,1,353,332.71a51.26,51.26,0,0,1-5.78-.36h-.07a6.4,6.4,0,0,0-7.08,5.72l-1.64,16.47a6.35,6.35,0,0,0,5.25,6.9c1.16.19,2.36.37,3.6.52a103.51,103.51,0,0,0,12.86.66,49.36,49.36,0,0,0,23-5.24,34.13,34.13,0,0,0,15.13-15.07q5-9.84,2.62-23.77a49.39,49.39,0,0,0-3.34-11.32q-2.37-5.59-4.4-11.38a35.22,35.22,0,0,1-2-11.73q0-8.34,10.43-12.22,8.48-3.15,22.05-3.73a6.73,6.73,0,0,0,6.48-6.69V244.52A6.73,6.73,0,0,0,423.61,237.83Z"/><rect class="cls-2" x="447.13" y="217.13" width="14.64" height="73.2" rx="5.86"/></g></g><g id="DARK_FAVICON" data-name="DARK FAVICON"><path class="cls-6" d="M432.09,74.29,363.18,143.2l-23.55,23.55L270,236.37l-33.57,33.57-70,70-22.88,22.88L74.43,432l6.71,6.71A253,253,0,1,1,431.9,74.1Z"/><g id="RIGHT-2" data-name="RIGHT"><path class="cls-2" d="M138.38,193.63a88.7,88.7,0,0,0,5.5,15.29,37.53,37.53,0,0,1,3.58,15.89q0,12.06-9.49,18.75-8.79,6.19-24.07,6.86a2.58,2.58,0,0,0,0,5.16q15.27.64,24.06,6.44,9.5,6.27,9.49,17a36,36,0,0,1-3.76,16.13,63.77,63.77,0,0,0-5.32,15.05q-2.26,11.1,2.69,16.9a15.51,15.51,0,0,0,12.25,5.79,51.57,51.57,0,0,0,5.79-.36h.06a6.4,6.4,0,0,1,7.1,5.73l.17,1.67-22.88,22.88a48.31,48.31,0,0,1-20.46-5.19,34.23,34.23,0,0,1-15.18-15.11q-5-9.86-2.62-23.83a49.62,49.62,0,0,1,3.34-11.35q2.39-5.61,4.42-11.41a35.4,35.4,0,0,0,2-11.76q0-8.37-10.45-12.25-8.51-3.15-22.11-3.74a6.75,6.75,0,0,1-6.5-6.71v-17a6.74,6.74,0,0,1,6.45-6.7q13.63-.69,22.16-4.44,10.45-4.59,10.45-13.68a35.93,35.93,0,0,0-2-12.06q-2-5.73-4.36-11.29a55.69,55.69,0,0,1-3.4-11.17q-2.4-13.5,2.62-22.87A32.91,32.91,0,0,1,123.1,148a52.43,52.43,0,0,1,23.05-4.89,104.35,104.35,0,0,1,12.9.65c1.24.16,2.44.34,3.61.53a6.36,6.36,0,0,1,5.26,6.91l-1.63,16.37a6.53,6.53,0,0,1-7.08,5.83h-.1c-.72-.07-1.42-.13-2.09-.17a24,24,0,0,0-8.68.93Q134.56,178.35,138.38,193.63Z"/><rect class="cls-2" x="44.23" y="217.04" width="14.68" height="73.39" rx="5.87"/></g><g id="BALLS-2" data-name="BALLS"><path class="cls-3" d="M270,236.37l-33.57,33.57A23.74,23.74,0,1,1,270,236.37Z"/><circle class="cls-4" cx="191.85" cy="253" r="23.74"/></g><g id="LEFT-2" data-name="LEFT"><path class="cls-2" d="M363.18,143.2l-23.55,23.55-1.55-15.55a6.36,6.36,0,0,1,5.26-6.91c1.17-.19,2.37-.37,3.61-.53a104.35,104.35,0,0,1,12.9-.65Q361.55,143.11,363.18,143.2Z"/></g></g></g></g></g></svg>