<svg xmlns="http://www.w3.org/2000/svg" viewBox="0 0 506 506"><defs><style>.cls-1{fill:#00172d;}.cls-2{fill:#004fad;}.cls-3{fill:#ffe000;}.cls-4{fill:#ff3ead;}.cls-5{fill:#61b0ff;}</style></defs><g id="Layer_2" data-name="Layer 2"><g id="Layer_1-2" data-name="Layer 1"><g id="DARK_FAVICON" data-name="DARK FAVICON"><rect class="cls-1" width="506" height="506" rx="253"/><g id="RIGHT"><path class="cls-2" d="M148.34,174.15a24,24,0,0,1,8.68-.93c.67,0,1.37.1,2.09.17h.1a6.53,6.53,0,0,0,7.08-5.83l1.63-16.37a6.36,6.36,0,0,0-5.26-6.91c-1.17-.19-2.37-.37-3.61-.53a104.35,104.35,0,0,0-12.9-.65A52.43,52.43,0,0,0,123.1,148a32.84,32.84,0,0,0-15.17,14.28q-5,9.38-2.63,22.87a55.69,55.69,0,0,0,3.4,11.17q2.33,5.55,4.36,11.29a35.68,35.68,0,0,1,2,12.06q0,9.09-10.45,13.68-8.52,3.75-22.16,4.44a6.74,6.74,0,0,0-6.45,6.7v17a6.75,6.75,0,0,0,6.5,6.71q13.6.58,22.11,3.74,10.45,3.88,10.45,12.25a35.14,35.14,0,0,1-2,11.76q-2,5.81-4.42,11.41a49.62,49.62,0,0,0-3.34,11.35q-2.4,14,2.63,23.83a34.16,34.16,0,0,0,15.17,15.11,49.42,49.42,0,0,0,23.05,5.25,104.35,104.35,0,0,0,12.9-.65c1.24-.16,2.44-.34,3.61-.53a6.36,6.36,0,0,0,5.26-6.91l-1.65-16.52a6.4,6.4,0,0,0-7.1-5.73h-.06a51.57,51.57,0,0,1-5.79.36,15.51,15.51,0,0,1-12.25-5.79q-4.95-5.79-2.68-16.9a63.28,63.28,0,0,1,5.31-15.05A36,36,0,0,0,147.46,279q0-10.76-9.49-17-8.79-5.81-24.06-6.44a2.58,2.58,0,0,1,0-5.16q15.28-.67,24.07-6.86,9.5-6.69,9.49-18.75a37.53,37.53,0,0,0-3.58-15.89,87.81,87.81,0,0,1-5.49-15.29Q134.57,178.35,148.34,174.15Z"/><rect class="cls-2" x="44.23" y="217.04" width="14.68" height="73.39" rx="5.87"/></g><g id="BALLS"><circle class="cls-3" cx="253.08" cy="253" r="23.74"/><circle class="cls-4" cx="191.85" cy="253" r="23.74"/><circle class="cls-5" cx="314.31" cy="253" r="23.74"/></g><g id="LEFT"><path class="cls-2" d="M423.52,237.79q-13.65-.69-22.16-4.44-10.46-4.59-10.45-13.68a35.68,35.68,0,0,1,2-12.06q2-5.73,4.36-11.29a55.69,55.69,0,0,0,3.4-11.17q2.4-13.5-2.63-22.87A32.84,32.84,0,0,0,382.9,148a52.43,52.43,0,0,0-23-4.89,104.35,104.35,0,0,0-12.9.65c-1.24.16-2.44.34-3.61.53a6.36,6.36,0,0,0-5.26,6.91l1.63,16.37a6.53,6.53,0,0,0,7.08,5.83h.1c.72-.07,1.42-.13,2.09-.17a24,24,0,0,1,8.68.93q13.79,4.2,9.95,19.48a87.81,87.81,0,0,1-5.49,15.29,37.53,37.53,0,0,0-3.58,15.89q0,12.06,9.49,18.75,8.79,6.19,24.07,6.86a2.58,2.58,0,0,1,0,5.16q-15.27.64-24.06,6.44-9.5,6.27-9.49,17a36,36,0,0,0,3.76,16.13,63.28,63.28,0,0,1,5.31,15.05q2.28,11.1-2.68,16.9a15.51,15.51,0,0,1-12.25,5.79,51.57,51.57,0,0,1-5.79-.36h-.06a6.4,6.4,0,0,0-7.1,5.73l-1.65,16.52a6.36,6.36,0,0,0,5.26,6.91c1.17.19,2.37.37,3.61.53a104.35,104.35,0,0,0,12.9.65,49.42,49.42,0,0,0,23-5.25,34.16,34.16,0,0,0,15.17-15.11q5-9.86,2.63-23.83a49.62,49.62,0,0,0-3.34-11.35q-2.39-5.61-4.42-11.41a35.14,35.14,0,0,1-2-11.76q0-8.37,10.45-12.25,8.5-3.15,22.11-3.74a6.75,6.75,0,0,0,6.5-6.71v-17A6.74,6.74,0,0,0,423.52,237.79Z"/><rect class="cls-2" x="447.09" y="217.04" width="14.68" height="73.39" rx="5.87"/></g></g></g></g></svg>