<svg xmlns="http://www.w3.org/2000/svg" viewBox="0 0 506 506"><defs><style>.cls-1{fill:#fff;}.cls-2{fill:#004fad;}.cls-3{fill:#ffe000;}.cls-4{fill:#ff3ead;}.cls-5{fill:#61b0ff;}</style></defs><g id="Layer_2" data-name="Layer 2"><g id="Layer_1-2" data-name="Layer 1"><g id="LIGHT_FAVICON" data-name="LIGHT FAVICON"><rect class="cls-1" width="506" height="506" rx="253"/><g id="RIGHT"><path class="cls-2" d="M148.61,174.35a24.32,24.32,0,0,1,8.65-.93c.68.05,1.38.1,2.09.17h.1a6.5,6.5,0,0,0,7.06-5.81l1.63-16.32a6.34,6.34,0,0,0-5.25-6.9c-1.16-.19-2.36-.37-3.6-.52a103.51,103.51,0,0,0-12.86-.66,52.38,52.38,0,0,0-23,4.88,32.81,32.81,0,0,0-15.13,14.24q-5,9.36-2.62,22.82a56.48,56.48,0,0,0,3.4,11.14q2.31,5.53,4.34,11.26a35.75,35.75,0,0,1,2,12q0,9.06-10.43,13.64-8.49,3.73-22.09,4.43a6.73,6.73,0,0,0-6.44,6.69v16.94A6.73,6.73,0,0,0,83,268.15q13.57.59,22,3.73,10.42,3.89,10.43,12.22a35.22,35.22,0,0,1-2,11.73q-2,5.78-4.4,11.38a49.89,49.89,0,0,0-3.34,11.32q-2.39,13.94,2.62,23.77a34.13,34.13,0,0,0,15.13,15.07,49.36,49.36,0,0,0,23,5.24,103.51,103.51,0,0,0,12.86-.66c1.24-.15,2.44-.33,3.6-.52a6.34,6.34,0,0,0,5.25-6.9l-1.64-16.47a6.39,6.39,0,0,0-7.08-5.72h-.07a51.23,51.23,0,0,1-5.77.36,15.48,15.48,0,0,1-12.22-5.78q-4.94-5.78-2.68-16.86a63.41,63.41,0,0,1,5.3-15A35.9,35.9,0,0,0,147.74,279q0-10.73-9.47-17-8.78-5.79-24-6.43a2.57,2.57,0,0,1,0-5.14q15.24-.68,24-6.84,9.47-6.68,9.47-18.71A37.31,37.31,0,0,0,144.16,209a88.8,88.8,0,0,1-5.48-15.25Q134.87,178.55,148.61,174.35Z"/><rect class="cls-2" x="44.77" y="217.13" width="14.64" height="73.2" rx="5.86"/></g><g id="BALLS"><circle class="cls-3" cx="253.08" cy="253" r="23.68"/><circle class="cls-4" cx="192.01" cy="253" r="23.68"/><circle class="cls-5" cx="314.16" cy="253" r="23.68"/></g><g id="LEFT"><path class="cls-2" d="M423.07,237.83q-13.59-.69-22.09-4.43-10.43-4.59-10.43-13.64a35.75,35.75,0,0,1,2-12q2-5.73,4.34-11.26a56.48,56.48,0,0,0,3.4-11.14q2.39-13.47-2.62-22.82a32.81,32.81,0,0,0-15.13-14.24,52.38,52.38,0,0,0-23-4.88,103.51,103.51,0,0,0-12.86.66c-1.24.15-2.44.33-3.6.52a6.34,6.34,0,0,0-5.25,6.9l1.63,16.32a6.5,6.5,0,0,0,7.06,5.81h.1c.71-.07,1.41-.12,2.09-.17a24.32,24.32,0,0,1,8.65.93q13.74,4.2,9.93,19.44A88.8,88.8,0,0,1,361.84,209a37.31,37.31,0,0,0-3.58,15.84q0,12,9.47,18.71,8.77,6.16,24,6.84a2.57,2.57,0,0,1,0,5.14q-15.24.65-24,6.43-9.47,6.25-9.47,17A35.9,35.9,0,0,0,362,295.06a63.41,63.41,0,0,1,5.3,15q2.26,11.08-2.68,16.86a15.48,15.48,0,0,1-12.22,5.78,51.23,51.23,0,0,1-5.77-.36h-.07a6.39,6.39,0,0,0-7.08,5.72l-1.64,16.47a6.34,6.34,0,0,0,5.25,6.9c1.16.19,2.36.37,3.6.52a103.51,103.51,0,0,0,12.86.66,49.36,49.36,0,0,0,23-5.24A34.13,34.13,0,0,0,397.7,342.3q5-9.84,2.62-23.77A49.89,49.89,0,0,0,397,307.21q-2.37-5.59-4.4-11.38a35.22,35.22,0,0,1-2-11.73q0-8.34,10.43-12.22,8.47-3.15,22-3.73a6.73,6.73,0,0,0,6.48-6.69V244.52A6.73,6.73,0,0,0,423.07,237.83Z"/><rect class="cls-2" x="446.59" y="217.13" width="14.64" height="73.2" rx="5.86"/></g></g></g></g></svg>