<svg xmlns="http://www.w3.org/2000/svg" viewBox="0 0 334.13 175.88"><defs><style>.cls-1{fill:#004fad;}.cls-2{fill:#ffe000;}.cls-3{fill:#ff3ead;}.cls-4{fill:#61b0ff;}</style></defs><g id="Layer_2" data-name="Layer 2"><g id="Layer_1-2" data-name="Layer 1"><g id="LOGO"><g id="RIGHT"><path id="R" class="cls-1" d="M83.31,24.84a19.43,19.43,0,0,1,7-.74c.54,0,1.1.08,1.67.13H92a5.23,5.23,0,0,0,5.67-4.66L99,6.48A5.09,5.09,0,0,0,94.77,1c-.93-.16-1.89-.3-2.89-.42A83.71,83.71,0,0,0,81.56,0,42,42,0,0,0,63.11,3.92,26.26,26.26,0,0,0,51,15.34q-4,7.52-2.1,18.31a44.83,44.83,0,0,0,2.72,8.93q1.88,4.45,3.49,9a28.55,28.55,0,0,1,1.63,9.65q0,7.27-8.37,10.95-6.81,3-17.73,3.55a5.4,5.4,0,0,0-5.16,5.37V94.73a5.39,5.39,0,0,0,5.2,5.36q10.89.48,17.69,3,8.37,3.1,8.37,9.8a28.12,28.12,0,0,1-1.63,9.42q-1.62,4.64-3.53,9.12a39.76,39.76,0,0,0-2.68,9.09Q47,151.7,51,159.59a27.4,27.4,0,0,0,12.14,12.09,39.61,39.61,0,0,0,18.45,4.2,84,84,0,0,0,10.32-.52c1-.13,2-.27,2.89-.43A5.08,5.08,0,0,0,99,169.4l-1.32-13.21A5.13,5.13,0,0,0,92,151.6h0a39.47,39.47,0,0,1-4.63.29,12.37,12.37,0,0,1-9.8-4.64q-4-4.63-2.15-13.52a50.59,50.59,0,0,1,4.25-12,28.75,28.75,0,0,0,3-12.9q0-8.59-7.6-13.62Q68,90.51,55.76,90a2.07,2.07,0,0,1,0-4.13Q68,85.34,75,80.39q7.6-5.36,7.6-15a29.91,29.91,0,0,0-2.87-12.71,70.81,70.81,0,0,1-4.39-12.24Q72.29,28.21,83.31,24.84Z"/><rect id="I" class="cls-1" y="59.16" width="11.75" height="58.73" rx="4.7"/></g><g id="BALLS"><circle id="YELLOW" class="cls-2" cx="167.13" cy="87.94" r="19"/><circle id="RED" class="cls-3" cx="118.13" cy="87.94" r="19"/><circle id="BLUE" class="cls-4" cx="216.13" cy="87.94" r="19"/></g><g id="LEFT"><path id="L" class="cls-1" d="M303.52,75.77q-10.92-.55-17.73-3.55-8.37-3.69-8.37-10.95a28.8,28.8,0,0,1,1.63-9.65q1.62-4.59,3.49-9a44.83,44.83,0,0,0,2.72-8.93q1.92-10.8-2.1-18.31A26.26,26.26,0,0,0,271,3.92,42,42,0,0,0,252.57,0a83.71,83.71,0,0,0-10.32.53c-1,.12-2,.26-2.89.42a5.09,5.09,0,0,0-4.21,5.53l1.31,13.1a5.22,5.22,0,0,0,5.66,4.66h.08c.57-.05,1.13-.1,1.68-.13a19.38,19.38,0,0,1,6.94.74q11,3.38,8,15.59a70,70,0,0,1-4.39,12.24,30.06,30.06,0,0,0-2.87,12.71q0,9.66,7.6,15,7,5,19.25,5.49a2.07,2.07,0,0,1,0,4.13q-12.22.51-19.25,5.15-7.6,5-7.6,13.62a28.75,28.75,0,0,0,3,12.9,50.59,50.59,0,0,1,4.25,12q1.83,8.9-2.15,13.52a12.36,12.36,0,0,1-9.79,4.64,39.5,39.5,0,0,1-4.64-.29h0a5.13,5.13,0,0,0-5.68,4.59l-1.32,13.21a5.09,5.09,0,0,0,4.21,5.53c.93.16,1.9.3,2.89.43a84,84,0,0,0,10.32.52,39.61,39.61,0,0,0,18.45-4.2,27.4,27.4,0,0,0,12.14-12.09q4-7.89,2.1-19.07a40.23,40.23,0,0,0-2.67-9.09q-1.92-4.49-3.54-9.12a28.38,28.38,0,0,1-1.63-9.42q0-6.69,8.37-9.8,6.81-2.52,17.7-3a5.39,5.39,0,0,0,5.19-5.36V81.14A5.4,5.4,0,0,0,303.52,75.77Z"/><rect id="I-2" data-name="I" class="cls-1" x="322.39" y="59.16" width="11.75" height="58.73" rx="4.7"/></g></g></g></g></svg>