<svg xmlns="http://www.w3.org/2000/svg" viewBox="0 0 132.66 151.66">
    <defs><style>.cls-1{fill:#ffe000;}.cls-2{fill:#61b0ff;}.cls-3{fill:#ff3ead;}.cls-4{fill:none;stroke:#004fad;stroke-linejoin:round;stroke-width:6px;}</style></defs>
    <g id="Layer_2" data-name="Layer 2">
        <g id="Layer_1-2" data-name="Layer 1">
            <g id="GITHUB">
                <path id="YELLOW" class="cls-1" d="M28.32,28.32,14.71,53.16A28.32,28.32,0,1,1,50.19,10.33Z"/>
                    <circle id="BLUE" class="cls-2" cx="102.16" cy="97.16" r="30.5"/>
                    <rect id="PINK" class="cls-3" x="43.66" y="135.66" width="50" height="16" rx="8"/>
                <path id="ICON" class="cls-4" d="M71.22,7.23c-31.71,0-56,24.07-56,55.78A57.31,57.31,0,0,0,54,117.7c2.92.53,4-1.28,4-2.76s-.07-9.24-.07-14c0,0-16,3.43-19.36-6.81,0,0-2.61-6.66-6.36-8.37,0,0-5.23-3.59.37-3.52a12,12,0,0,1,8.82,5.9c5,8.82,13.4,6.28,16.67,4.77a12.72,12.72,0,0,1,3.66-7.7C48.91,83.75,36,81.9,36,59.9c0-6.28,1.74-9.44,5.4-13.46-.6-1.49-2.54-7.62.59-15.53,4.78-1.48,15.78,6.18,15.78,6.18a53.85,53.85,0,0,1,28.72,0s11-7.69,15.77-6.18c3.13,7.94,1.19,14,.6,15.53,3.65,4,5.89,7.2,5.89,13.46,0,22.07-13.46,23.83-26.24,25.27C84.62,87,86.4,90.4,86.4,95.78c0,7.7-.06,17.24-.06,19.11,0,1.49,1,3.29,4,2.77,22.86-7.59,38.37-29.29,38.37-54.65C128.66,31.3,102.93,7.23,71.22,7.23Z"/>
            </g>
        </g>
    </g>
</svg>