<svg xmlns="http://www.w3.org/2000/svg" viewBox="0 0 114.66 133.66"><defs><style>.cls-1{fill:#ffe000;}.cls-2{fill:#61b0ff;}.cls-3{fill:none;stroke:#004fad;stroke-linejoin:round;stroke-width:6px;}.cls-4{fill:#ff3ead;}</style></defs><g id="Layer_2" data-name="Layer 2"><g id="Layer_1-2" data-name="Layer 1"><g id="HOME"><path id="YELLOW" class="cls-1" d="M28.32,28.32l-22,17.77A28.32,28.32,0,0,1,49,9Z"/><circle id="BLUE" class="cls-2" cx="84.16" cy="77.16" r="30.5"/><path id="ICON" class="cls-3" d="M102.63,51.77a5.51,5.51,0,0,1-5.46,5.47H93.69a2,2,0,0,0-2,2l.12,25.33a12.62,12.62,0,0,1-.09,1.38v3.76a5.82,5.82,0,0,1-5.81,5.82H82.2c-.18,0-.37-.16-.56,0-.24-.14-.48,0-.72,0H70.29a5.83,5.83,0,0,1-5.82-5.82V72.61a4.39,4.39,0,0,0-4.38-4.39H47a4.4,4.4,0,0,0-4.39,4.39V89.68a5.82,5.82,0,0,1-5.81,5.82H26.3c-.25,0-.51,0-.76,0s-.41,0-.62,0H21.19a5.82,5.82,0,0,1-5.81-5.82V69.58c0-.15,0-.32,0-.47v-9.9a2,2,0,0,0-2-2H9.93a5.43,5.43,0,0,1-5.45-5.09,5.58,5.58,0,0,1,1.69-4.47L49.88,9.58a4.9,4.9,0,0,1,3.75-1.37,5.72,5.72,0,0,1,3.6,1.2l43.52,38.27a4.66,4.66,0,0,1,1.88,4.09Z"/><rect id="PINK" class="cls-4" x="28.66" y="117.66" width="50" height="16" rx="8"/></g></g></g></svg>