<svg xmlns="http://www.w3.org/2000/svg" viewBox="0 0 157.66 145.66"><defs><style>.cls-1{fill:#ffe000;}.cls-2{fill:#61b0ff;}.cls-3{fill:#ff3ead;}.cls-4{fill:none;stroke:#004fad;stroke-linejoin:round;stroke-width:6px;}</style></defs><g id="Layer_2" data-name="Layer 2"><g id="Layer_1-2" data-name="Layer 1"><g id="MAIL"><path id="YELLOW" class="cls-1" d="M28.32,28.32,22.63,56.06a28.32,28.32,0,1,1,34-28.71Z"/><circle id="BLUE" class="cls-2" cx="127.16" cy="95.16" r="30.5"/><rect id="RED" class="cls-3" x="58.66" y="129.66" width="50" height="16" rx="8"/><path id="ICON" class="cls-4" d="M130.36,26.66a11.21,11.21,0,0,1,11.08,8.76,11,11,0,0,1-4.17,11L87.58,83.65a7.34,7.34,0,0,1-8.77,0L29.12,46.39a11,11,0,0,1-4.16-11A11.22,11.22,0,0,1,36,26.66Zm-52,56.74a8.13,8.13,0,0,0,9.76,0l51.3-38.47a1.42,1.42,0,0,1,2.28,1.14V90.71A14.62,14.62,0,0,1,127,105.33H39.35A14.62,14.62,0,0,1,24.74,90.71V46.07A1.42,1.42,0,0,1,27,44.93Z"/></g></g></g></svg>