<svg xmlns="http://www.w3.org/2000/svg" viewBox="0 0 124.66 145.66"><defs><style>.cls-1{fill:#61b0ff;}.cls-2{fill:#ff3ead;}.cls-3{fill:#ffe000;}.cls-4{fill:none;stroke:#004fad;stroke-linejoin:round;stroke-width:6px;}</style></defs><g id="Layer_2" data-name="Layer 2"><g id="Layer_1-2" data-name="Layer 1"><g id="PROFILE"><circle id="BLUE" class="cls-1" cx="94.16" cy="91.16" r="30.5"/><rect id="RED" class="cls-2" x="35.66" y="129.66" width="50" height="16" rx="8"/><path id="YELLOW" class="cls-3" d="M40.2,43.47a21.67,21.67,0,0,0,2.15,9.45h0A28.32,28.32,0,1,1,56,22.49,21.81,21.81,0,0,0,40.2,43.47Z"/><path id="ICON" class="cls-4" d="M62,65.27a21.81,21.81,0,1,0-21.8-21.8A21.8,21.8,0,0,0,62,65.27Zm8.64,8.18H53.37A29.53,29.53,0,0,0,23.84,103a5.91,5.91,0,0,0,5.91,5.91H94.26a5.9,5.9,0,0,0,5.91-5.91A29.53,29.53,0,0,0,70.64,73.45Z"/></g></g></g></svg>