<svg xmlns="http://www.w3.org/2000/svg" viewBox="0 0 152.66 138.66"><defs><style>.cls-1{fill:#ffe000;}.cls-2{fill:#61b0ff;}.cls-3{fill:#ff3ead;}.cls-4{fill:none;stroke:#004fad;stroke-linejoin:round;stroke-width:6px;}</style></defs><g id="Layer_2" data-name="Layer 2"><g id="Layer_1-2" data-name="Layer 1"><g id="PROJECTS"><path id="YELLOW" class="cls-1" d="M28.32,28.32l-3.4,28.12A28.32,28.32,0,1,1,56.14,23Z"/><circle id="BLUE" class="cls-2" cx="122.16" cy="99.16" r="30.5"/><rect id="RED" class="cls-3" x="41.66" y="122.66" width="50" height="16" rx="8"/><path id="ICON" class="cls-4" d="M25.78,35.43A10.16,10.16,0,0,1,36,25.26h40.7A10.16,10.16,0,0,1,86.83,35.43V66A10.17,10.17,0,0,1,76.66,76.13H36A10.17,10.17,0,0,1,25.78,66ZM76.66,86.31A20.37,20.37,0,0,0,97,66V55.78h20.35A10.17,10.17,0,0,1,127.53,66V96.48a10.17,10.17,0,0,1-10.17,10.18H76.66A10.17,10.17,0,0,1,66.48,96.48V86.31Z"/></g></g></g></svg>