<svg xmlns="http://www.w3.org/2000/svg" viewBox="0 0 92.71 134.21"><g id="Layer_2" data-name="Layer 2"><g id="Layer_1-2" data-name="Layer 1"><path d="M49.59,62c-4.82,2.06-10.29,4.4-17.38,4.4a32.9,32.9,0,0,1-8.77-1.21l4.9,50.35a8.43,8.43,0,0,0,8.39,7.72s7,.36,9.27.36c2.5,0,10-.36,10-.36a8.43,8.43,0,0,0,8.39-7.72L69.62,59.9a22.42,22.42,0,0,0-7.39-1.33C57.61,58.57,53.89,60.16,49.59,62Z"/><path d="M8.26,40.52l.08.07.05,0a.69.69,0,0,0-.13-.11Z"/><path d="M92.29,35.87l-.73-3.72c-.67-3.35-2.17-6.5-5.6-7.71-1.1-.39-2.35-.55-3.19-1.35a5.54,5.54,0,0,1-1.29-3.2c-.36-2.11-.7-4.23-1.07-6.34A20.54,20.54,0,0,0,79,8c-1.09-2.23-3.34-3.54-5.57-4.4a33.69,33.69,0,0,0-3.5-1.09A86.06,86.06,0,0,0,52.74.22,144.33,144.33,0,0,0,32.05.56c-5.12.47-10.52,1-15.38,2.8a13.06,13.06,0,0,0-5,2.8,5.36,5.36,0,0,0-1,6.41,8.34,8.34,0,0,0,3.86,3.25,31.56,31.56,0,0,0,6.28,2,102.35,102.35,0,0,0,18.38,2.07,139.13,139.13,0,0,0,20.41-.66c1.67-.19,3.35-.41,5-.67,2-.3,3.23-2.87,2.65-4.66a3.91,3.91,0,0,0-4.66-2.65l-.93.14-.22,0-2.15.26c-1.47.16-3,.29-4.43.39-3.32.23-6.65.33-10,.34s-6.54-.09-9.8-.31c-1.49-.09-3-.22-4.45-.37-.68-.07-1.35-.14-2-.23L28,11.46l-.14,0-.66-.09c-1.35-.21-2.71-.44-4-.73a.61.61,0,0,1-.34-.21.62.62,0,0,1,0-.76.61.61,0,0,1,.34-.21h0c1.16-.25,2.33-.46,3.5-.65l1.18-.18h0c.73,0,1.47-.18,2.2-.26a139.37,139.37,0,0,1,19.16-.68c3.1.09,6.2.27,9.29.59l2,.22.76.1.51.07q2.25.33,4.47.81c2.19.48,5,.63,6,3a14.46,14.46,0,0,1,.62,2.41l.22,1s0,0,0,.06c.52,2.41,1,4.81,1.55,7.22a1.23,1.23,0,0,1,0,.54,1.16,1.16,0,0,1-.21.5,1.38,1.38,0,0,1-.39.37,1.55,1.55,0,0,1-.51.18h0l-.32,0-.31,0q-1.48.19-3,.36c-2,.23-3.91.42-5.87.58q-5.85.5-11.71.64c-2,.05-4,.08-6,.07a204.29,204.29,0,0,1-23.72-1.38l-2.55-.32-.71-.09-1.63-.24c-1.82-.27-3.63-.61-5.44-.9a9.5,9.5,0,0,0-6.28.9A9.14,9.14,0,0,0,2.3,28.41,23,23,0,0,0,.8,34c-.38,1.9-1,3.94-.75,5.89a9.41,9.41,0,0,0,7.67,8.4c4,.73,8,1.31,12,1.81a222.42,222.42,0,0,0,47.56.69c1.29-.12,2.57-.25,3.86-.39a2.65,2.65,0,0,1,2.2.77,2.56,2.56,0,0,1,.64,1,2.64,2.64,0,0,1,.15,1.18l-.4,3.9q-1.22,11.81-2.42,23.62l-2.55,24.8-.72,7c-.23,2.29-.26,4.65-.7,6.92a8,8,0,0,1-6.61,6.54,45.81,45.81,0,0,1-9.82,1.15c-3.66,0-7.33-.14-11-.12-3.91,0-8.7-.34-11.72-3.25-2.65-2.56-3-6.56-3.38-10q-.72-6.87-1.43-13.75L20.74,74.67,19,58.19l-.09-.82c-.2-2-1.59-3.89-3.79-3.79-1.88.08-4,1.68-3.79,3.79l1.27,12.22,2.64,25.28q1.13,10.77,2.24,21.54c.14,1.38.28,2.76.43,4.13.83,7.52,6.57,11.57,13.68,12.71a88.52,88.52,0,0,0,12.62.88c5.4.08,10.86.29,16.17-.69,7.87-1.44,13.78-6.7,14.62-14.85.25-2.36.49-4.71.73-7.07q1.2-11.68,2.39-23.37l2.62-25.46L82,51a2.76,2.76,0,0,1,.7-1.55,2.68,2.68,0,0,1,1.48-.83,10.67,10.67,0,0,0,6-2.9C92.69,43,93.19,39.46,92.29,35.87ZM7.6,38.39s0,.28-.06.41C7.54,38.59,7.55,38.41,7.6,38.39Zm.22,1.69s.07.06.13.14c-.09-.08-.14-.14-.13-.14Zm.21.28c.08.13.12.22,0,0Zm.43.35h0l0,0s0,0,0,0ZM84,40.19a6,6,0,0,1-3.23,1.3,227.22,227.22,0,0,1-40.86,2.57,276.08,276.08,0,0,1-29.12-2.78,4.31,4.31,0,0,1-2.62-1C7,39,7.57,36.3,7.89,34.71s.85-3.41,2.59-3.61c2.71-.32,5.85.82,8.53,1.23,3.23.49,6.46.88,9.71,1.18a187.8,187.8,0,0,0,41.79-.78q3.76-.51,7.52-1.18c2.22-.4,4.69-1.15,6,1.16a9.6,9.6,0,0,1,.9,5.44,3,3,0,0,1-.94,2Z"/></g></g></svg>