<svg xmlns="http://www.w3.org/2000/svg" viewBox="0 0 132.37 129.07"><g id="Layer_2" data-name="Layer 2"><g id="Layer_1-2" data-name="Layer 1"><path id="github" d="M44.28,103.92c0,.54-.62,1-1.39,1s-1.5-.34-1.5-1,.62-1,1.39-1S44.28,103.31,44.28,103.92Zm-8.3-1.2c-.19.54.34,1.15,1.14,1.31a1.26,1.26,0,0,0,1.66-.53c.16-.54-.35-1.15-1.15-1.39a1.36,1.36,0,0,0-1.65.61Zm11.79-.45c-.77.19-1.31.69-1.23,1.31s.78.88,1.58.69,1.31-.69,1.23-1.23S48.55,102.19,47.77,102.27ZM65.33,0C28.32,0,0,28.1,0,65.12,0,94.72,18.63,120,45.24,129c3.41.61,4.61-1.5,4.61-3.23s-.08-10.78-.08-16.39c0,0-18.68,4-22.6-8,0,0-3-7.77-7.42-9.77,0,0-6.11-4.19.43-4.11a14.08,14.08,0,0,1,10.3,6.89c5.84,10.3,15.64,7.33,19.45,5.57a14.86,14.86,0,0,1,4.27-9c-14.92-1.66-30-3.82-30-29.49,0-7.34,2-11,6.3-15.72-.69-1.73-3-8.89.69-18.12,5.58-1.74,18.42,7.2,18.42,7.2a63.28,63.28,0,0,1,33.52,0s12.84-9,18.41-7.2c3.66,9.26,1.39,16.39.7,18.12,4.27,4.72,6.88,8.41,6.88,15.72,0,25.75-15.72,27.81-30.63,29.49,2.45,2.11,4.53,6.11,4.53,12.38,0,9-.08,20.13-.08,22.31,0,1.74,1.23,3.85,4.62,3.23,26.69-8.86,44.78-34.18,44.78-63.78C132.37,28.1,102.35,0,65.33,0ZM25.94,92.05c-.35.26-.27.88.19,1.38s1,.62,1.39.27.26-.88-.19-1.39S26.29,91.7,25.94,92.05Zm-2.88-2.16c-.19.34.08.77.61,1a.81.81,0,0,0,1.15-.19c.19-.35-.08-.77-.61-1S23.25,89.62,23.06,89.89Zm8.65,9.5c-.43.34-.27,1.14.34,1.65s1.39.69,1.74.27.18-1.15-.35-1.66S32.05,99,31.71,99.39Zm-3.05-3.93c-.42.27-.42,1,0,1.58s1.15.88,1.5.61a1.23,1.23,0,0,0,0-1.65c-.38-.62-1.07-.88-1.5-.54Z"/></g></g></svg>