<svg xmlns="http://www.w3.org/2000/svg" viewBox="0 0 129.07 129.07"><g id="Layer_2" data-name="Layer 2"><g id="Layer_1-2" data-name="Layer 1"><path id="linkedin" d="M119.85,0H9.19A9.26,9.26,0,0,0,0,9.31V119.76a9.26,9.26,0,0,0,9.19,9.31H119.85a9.29,9.29,0,0,0,9.22-9.31V9.31A9.29,9.29,0,0,0,119.85,0ZM39,110.63H19.88V49H39v61.6Zm-9.57-70A11.09,11.09,0,1,1,40.53,29.53,11.1,11.1,0,0,1,29.44,40.62Zm81.27,70H91.58v-30c0-7.15-.14-16.34-9.93-16.34-10,0-11.5,7.78-11.5,15.82v30.48H51V49H69.37v8.42h.26c2.57-4.84,8.82-9.94,18.12-9.94,19.36,0,23,12.76,23,29.35Z"/></g></g></svg>