<svg xmlns="http://www.w3.org/2000/svg" viewBox="0 0 131.34 131.71"><g id="Layer_2" data-name="Layer 2"><g id="Layer_1-2" data-name="Layer 1"><path d="M129.59,57.69a19,19,0,0,0-4.9-6.42l-6-5.18A5.08,5.08,0,0,1,117,42.2l.83-8a18.85,18.85,0,0,0-12.4-19.54,18.86,18.86,0,0,0-8.15-1l-8.06.71A5,5,0,0,1,85,12.74L79.8,6.87a18.53,18.53,0,0,0-28.68-.06l-5.21,6a4.94,4.94,0,0,1-1.75,1.32,5,5,0,0,1-2.08.41l-8.25-.66a18.89,18.89,0,0,0-20.3,20.37l.72,8.06a4.8,4.8,0,0,1-.32,2.28,5,5,0,0,1-1.34,1.9L6.68,51.66A18.8,18.8,0,0,0,1.75,74a18.79,18.79,0,0,0,4.9,6.42l6,5.18a5.18,5.18,0,0,1,1.32,1.79,5.25,5.25,0,0,1,.43,2.14l-.65,8.2A18.83,18.83,0,0,0,34.08,118l8-.71A4.81,4.81,0,0,1,46.13,119l5.17,5.87a18.68,18.68,0,0,0,14.36,6.87H66l.27-.07a18.74,18.74,0,0,0,14-6.8l5.18-6a5.08,5.08,0,0,1,1.79-1.33,5.19,5.19,0,0,1,2.13-.42l8.19.64a18.72,18.72,0,0,0,19.2-12.33,19.06,19.06,0,0,0,1.1-8l-.72-8a4.83,4.83,0,0,1,.32-2.29,4.92,4.92,0,0,1,1.34-1.89l5.91-5.2a18.8,18.8,0,0,0,4.93-22.29Zm-11.42,8a4.87,4.87,0,0,1-1.77,3.77l-5.87,5.17a18.73,18.73,0,0,0-6.86,15.93l.65,8a4.87,4.87,0,0,1-1.44,4,4.67,4.67,0,0,1-1.78,1.15,4.79,4.79,0,0,1-2.19.24l-8-.59A18.78,18.78,0,0,0,75,110.08l-5.17,6-.07.08a4.59,4.59,0,0,1-1.72,1.34,4.52,4.52,0,0,1-2.14.4h-.15a5,5,0,0,1-2-.45,4.89,4.89,0,0,1-1.7-1.32l-5.19-5.89a18.8,18.8,0,0,0-14.32-6.85h-.35l-1.84.51-7.76.64a4.89,4.89,0,0,1-5-3.17,5.05,5.05,0,0,1-.28-2.12l.6-8a19.07,19.07,0,0,0-1.49-8.79,18.9,18.9,0,0,0-5.31-7.07l-5.94-5.17L15,70.05a4.59,4.59,0,0,1-1.33-1.72,4.64,4.64,0,0,1-.4-2.14v-.13A4.87,4.87,0,0,1,13.74,64a5,5,0,0,1,1.32-1.71l5.87-5.17a18.76,18.76,0,0,0,6.86-15.94l-.66-8a5,5,0,0,1,.27-2.13,5.13,5.13,0,0,1,1.18-1.84,4.65,4.65,0,0,1,1.78-1.14,4.74,4.74,0,0,1,2.18-.24l8.05.59a19,19,0,0,0,15.85-6.8l5.17-5.94.07-.09a4.59,4.59,0,0,1,1.72-1.33,4.52,4.52,0,0,1,2.14-.4h.2l.19,0a4.83,4.83,0,0,1,3.92,1.36L75,21.06a18.67,18.67,0,0,0,15.91,6.82l8-.65a4.85,4.85,0,0,1,2.1.26,4.91,4.91,0,0,1,1.78,1.13,4.85,4.85,0,0,1,1.14,1.78,4.73,4.73,0,0,1,.28,2.12l-.59,8a18.82,18.82,0,0,0,6.8,15.85l5.94,5.17.08.07a4.61,4.61,0,0,1,1.74,3.87Z"/><path d="M65.67,41A24.8,24.8,0,1,0,83.2,48.29,24.66,24.66,0,0,0,65.67,41Zm7.69,32.49a10.88,10.88,0,1,1,3.19-7.7A10.82,10.82,0,0,1,73.36,73.52Z"/></g></g></svg>