<svg xmlns="http://www.w3.org/2000/svg" viewBox="0 0 158.91 129.07"><g id="Layer_2" data-name="Layer 2"><g id="Layer_1-2" data-name="Layer 1"><path id="twitter" d="M142.58,32.17c.1,1.41.1,2.82.1,4.23,0,43.06-32.77,92.67-92.67,92.67A92,92,0,0,1,0,114.44a65.65,65.65,0,0,0,7.86.41A65.19,65.19,0,0,0,48.3,100.93,32.62,32.62,0,0,1,17.85,78.35a41.27,41.27,0,0,0,6.15.5,34.24,34.24,0,0,0,8.57-1.11,32.57,32.57,0,0,1-26.12-32v-.41a32.81,32.81,0,0,0,14.72,4.14A32.61,32.61,0,0,1,11.09,6,92.57,92.57,0,0,0,78.25,40a36.34,36.34,0,0,1-.81-7.46A32.6,32.6,0,0,1,133.8,10.28a64.08,64.08,0,0,0,20.67-7.86,32.49,32.49,0,0,1-14.31,18,65.48,65.48,0,0,0,18.75-5,70,70,0,0,1-16.33,16.84Z"/></g></g></svg>